{"scene":0,"asset":{"generator":"ImageToStl.com","version":"2.0"},"scenes":[{"name":"Scene","nodes":[0]}],"nodes":[{"name":"Node0","children":[1,2,3]},{"name":"Node1","mesh":0},{"name":"Node2","mesh":1},{"name":"Node3","mesh":2}],"materials":[{"name":"bookcover","pbrMetallicRoughness":{"baseColorFactor":[0.24475,0.060762,0.031412,1.0],"metallicFactor":0.5,"roughnessFactor":1.0},"emissiveFactor":[0.0,0.0,0.0],"doubleSided":true},{"name":"book side2","pbrMetallicRoughness":{"baseColorFactor":[0.776111,0.605197,0.393592,1.0],"metallicFactor":0.5,"roughnessFactor":0.75},"emissiveFactor":[0.0,0.0,0.0],"doubleSided":true},{"name":"book side","pbrMetallicRoughness":{"baseColorFactor":[0.700902,0.546933,0.356195,1.0],"metallicFactor":0.5,"roughnessFactor":0.75},"emissiveFactor":[0.0,0.0,0.0],"doubleSided":true},{"name":"gold","pbrMetallicRoughness":{"baseColorFactor":[0.435378,0.314326,0.009999,1.0],"metallicFactor":0.5,"roughnessFactor":0.28520662},"emissiveFactor":[0.0,0.0,0.0],"doubleSided":true},{"name":"altesBuch-haupttext","pbrMetallicRoughness":{"baseColorFactor":[0.8,0.8,0.8,1.0],"metallicFactor":0.5,"roughnessFactor":0.64},"emissiveFactor":[0.0,0.0,0.0],"doubleSided":true}],"meshes":[{"name":"Mesh0","primitives":[{"indices":3,"material":0,"attributes":{"POSITION":0,"NORMAL":1,"TEXCOORD_0":2}},{"indices":4,"material":1,"attributes":{"POSITION":0,"NORMAL":1,"TEXCOORD_0":2}},{"indices":5,"material":3,"attributes":{"POSITION":0,"NORMAL":1,"TEXCOORD_0":2}}]},{"name":"Mesh0","primitives":[{"indices":9,"material":4,"attributes":{"POSITION":6,"NORMAL":7,"TEXCOORD_0":8}}]},{"name":"Mesh0","primitives":[{"indices":13,"material":0,"attributes":{"POSITION":10,"NORMAL":11,"TEXCOORD_0":12}},{"indices":14,"material":0,"attributes":{"POSITION":10,"NORMAL":11,"TEXCOORD_0":12}},{"indices":15,"material":3,"attributes":{"POSITION":10,"NORMAL":11,"TEXCOORD_0":12}}]}],"accessors":[{"bufferView":0,"componentType":5126,"count":515,"type":"VEC3","min":[-0.91288733,-0.5412837,-0.020857692],"max":[-0.26123744,0.32038763,0.1301674]},{"bufferView":1,"componentType":5126,"count":515,"type":"VEC3"},{"bufferView":2,"componentType":5126,"count":515,"type":"VEC2"},{"bufferView":3,"componentType":5123,"count":5184,"type":"SCALAR"},{"bufferView":4,"componentType":5123,"count":972,"type":"SCALAR"},{"bufferView":5,"componentType":5123,"count":648,"type":"SCALAR"},{"bufferView":6,"componentType":5126,"count":110,"type":"VEC3","min":[0.662653,-0.5350728,0.035579205],"max":[1.8599873,0.31416702,0.17342454]},{"bufferView":7,"componentType":5126,"count":110,"type":"VEC3"},{"bufferView":8,"componentType":5126,"count":110,"type":"VEC2"},{"bufferView":9,"componentType":5123,"count":900,"type":"SCALAR"},{"bufferView":10,"componentType":5126,"count":776,"type":"VEC3","min":[0.6345428,-0.5412837,0.012363881],"max":[1.8880974,0.3203876,0.17342454]},{"bufferView":11,"componentType":5126,"count":776,"type":"VEC3"},{"bufferView":12,"componentType":5126,"count":776,"type":"VEC2"},{"bufferView":13,"componentType":5123,"count":3168,"type":"SCALAR"},{"bufferView":14,"componentType":5123,"count":5598,"type":"SCALAR"},{"bufferView":15,"componentType":5123,"count":648,"type":"SCALAR"}],"bufferViews":[{"target":34962,"buffer":0,"byteLength":6180,"byteOffset":0},{"target":34962,"buffer":0,"byteLength":6180,"byteOffset":6180},{"target":34962,"buffer":0,"byteLength":4120,"byteOffset":12360},{"target":34963,"buffer":0,"byteLength":10368,"byteOffset":16480},{"target":34963,"buffer":0,"byteLength":1944,"byteOffset":26848},{"target":34963,"buffer":0,"byteLength":1296,"byteOffset":28792},{"target":34962,"buffer":0,"byteLength":1320,"byteOffset":30088},{"target":34962,"buffer":0,"byteLength":1320,"byteOffset":31408},{"target":34962,"buffer":0,"byteLength":880,"byteOffset":32728},{"target":34963,"buffer":0,"byteLength":1800,"byteOffset":33608},{"target":34962,"buffer":0,"byteLength":9312,"byteOffset":35408},{"target":34962,"buffer":0,"byteLength":9312,"byteOffset":44720},{"target":34962,"buffer":0,"byteLength":6208,"byteOffset":54032},{"target":34963,"buffer":0,"byteLength":6336,"byteOffset":60240},{"target":34963,"buffer":0,"byteLength":11196,"byteOffset":66576},{"target":34963,"buffer":0,"byteLength":1296,"byteOffset":77772}],"buffers":[{"byteLength":79068,"uri":"data:application/octet-stream;base64,"}]}